<?xml version="1.0" encoding="UTF-8"?>
<svg xmlns="http://www.w3.org/2000/svg" xmlns:xlink="http://www.w3.org/1999/xlink" width="106px" height="70px" viewBox="0 0 105 70" version="1.1">
<g id="surface1">
<path style=" stroke:none;fill-rule:nonzero;fill:rgb(0%,0%,0%);fill-opacity:1;" d="M 66.363281 3.519531 L 66.511719 6.320312 L 63.976562 8.007812 L 61.4375 9.691406 L 64.296875 9.542969 L 67.152344 9.371094 L 68.828125 11.949219 L 70.476562 14.5 L 70.351562 11.601562 L 70.230469 8.699219 L 72.71875 7.0625 L 75.230469 5.402344 L 72.398438 5.550781 L 69.566406 5.675781 L 68.011719 3.222656 C 67.152344 1.859375 66.386719 0.742188 66.316406 0.742188 C 66.265625 0.742188 66.265625 2.007812 66.363281 3.519531 Z M 66.363281 3.519531 "/>
<path style=" stroke:none;fill-rule:nonzero;fill:rgb(0%,0%,0%);fill-opacity:1;" d="M 34.722656 17.648438 C 32.28125 22.308594 31.988281 22.976562 32.28125 23.425781 C 32.457031 23.695312 36.914062 29.074219 42.183594 35.398438 C 51.367188 46.351562 51.808594 46.875 52.179688 46.402344 C 52.523438 45.957031 70.425781 24.5625 71.363281 23.5 C 71.683594 23.125 71.4375 22.53125 68.925781 17.746094 L 66.117188 12.394531 L 37.480469 12.394531 Z M 49.839844 15.664062 C 49.546875 16.160156 45.457031 20.699219 45.308594 20.699219 C 45.234375 20.699219 44.027344 19.507812 42.625 18.019531 L 40.066406 15.367188 L 45.039062 15.367188 C 48.953125 15.367188 49.988281 15.441406 49.839844 15.664062 Z M 60.773438 18.121094 L 58.238281 20.871094 L 57.546875 20.027344 C 57.179688 19.582031 56.195312 18.34375 55.382812 17.277344 L 53.902344 15.367188 L 63.335938 15.367188 Z M 54.371094 18.464844 L 56.636719 21.316406 L 47.007812 21.316406 L 47.453125 20.746094 C 48.386719 19.53125 51.835938 15.640625 51.984375 15.617188 C 52.058594 15.617188 53.140625 16.90625 54.371094 18.464844 Z M 40.382812 21.269531 L 37.183594 21.34375 L 37.183594 22.804688 L 67.472656 22.804688 L 60.160156 31.726562 C 55.847656 37.007812 52.695312 40.652344 52.449219 40.652344 C 52.128906 40.652344 51.390625 38.84375 49.199219 32.398438 C 46.738281 25.308594 46.292969 24.167969 45.902344 24.242188 C 45.628906 24.292969 45.359375 24.414062 45.261719 24.488281 C 45.1875 24.589844 46.320312 28.109375 47.773438 32.347656 C 49.25 36.5625 50.429688 40.058594 50.382812 40.082031 C 50.332031 40.15625 35.953125 22.679688 35.632812 22.160156 C 35.535156 21.960938 36.050781 20.671875 36.988281 18.839844 L 38.539062 15.839844 L 41.074219 18.515625 L 43.585938 21.191406 Z M 66.339844 18.441406 C 67.101562 19.855469 67.71875 21.070312 67.71875 21.167969 C 67.71875 21.242188 65.945312 21.316406 63.753906 21.316406 L 59.8125 21.316406 L 62.324219 18.589844 C 63.730469 17.078125 64.886719 15.863281 64.933594 15.863281 C 64.960938 15.863281 65.601562 17.027344 66.339844 18.441406 Z M 66.339844 18.441406 "/>
<path style=" stroke:none;fill-rule:nonzero;fill:rgb(0%,0%,0%);fill-opacity:1;" d="M 57.054688 25.207031 C 56.957031 25.285156 56.882812 25.679688 56.882812 26.078125 C 56.882812 26.597656 57.007812 26.769531 57.375 26.769531 C 57.894531 26.769531 58.484375 25.703125 58.214844 25.257812 C 58.066406 25.011719 57.277344 24.960938 57.054688 25.207031 Z M 57.054688 25.207031 "/>
<path style=" stroke:none;fill-rule:nonzero;fill:rgb(0%,0%,0%);fill-opacity:1;" d="M 55.898438 28.65625 C 55.601562 29.449219 55.726562 29.992188 56.21875 29.992188 C 57.128906 29.992188 57.449219 28.234375 56.585938 28.058594 C 56.292969 28.011719 56.046875 28.207031 55.898438 28.65625 Z M 55.898438 28.65625 "/>
<path style=" stroke:none;fill-rule:nonzero;fill:rgb(0%,0%,0%);fill-opacity:1;" d="M 54.960938 31.53125 C 54.542969 31.949219 54.59375 32.894531 55.035156 33.066406 C 55.480469 33.238281 56.269531 32.148438 56.046875 31.605469 C 55.875 31.15625 55.355469 31.132812 54.960938 31.53125 Z M 54.960938 31.53125 "/>
<path style=" stroke:none;fill-rule:nonzero;fill:rgb(0%,0%,0%);fill-opacity:1;" d="M 53.828125 34.753906 C 53.558594 35.125 53.535156 35.398438 53.707031 35.742188 C 54.050781 36.386719 54.640625 36.289062 54.914062 35.546875 C 55.234375 34.726562 55.234375 34.753906 54.691406 34.453125 C 54.296875 34.257812 54.125 34.304688 53.828125 34.753906 Z M 53.828125 34.753906 "/>
<path style=" stroke:none;fill-rule:nonzero;fill:rgb(0%,0%,0%);fill-opacity:1;" d="M 52.648438 38.050781 C 52.402344 38.59375 52.425781 38.742188 52.796875 39.113281 C 53.191406 39.511719 53.238281 39.511719 53.582031 39.039062 C 54.050781 38.421875 53.929688 37.578125 53.386719 37.480469 C 53.117188 37.429688 52.84375 37.628906 52.648438 38.050781 Z M 52.648438 38.050781 "/>
<path style=" stroke:none;fill-rule:nonzero;fill:rgb(0%,0%,0%);fill-opacity:1;" d="M 39.152344 41.222656 L 39.152344 42.882812 L 37.871094 43.699219 L 36.566406 44.492188 L 38.117188 44.566406 L 39.671875 44.640625 L 40.457031 45.929688 L 41.246094 47.21875 L 41.394531 44.148438 L 42.675781 43.328125 L 43.957031 42.511719 L 42.402344 42.386719 L 40.851562 42.261719 L 39.992188 40.898438 L 39.152344 39.5625 Z M 39.152344 41.222656 "/>
<path style=" stroke:none;fill-rule:nonzero;fill:rgb(0%,0%,0%);fill-opacity:1;" d="M 34.476562 55.277344 C 33.613281 55.375 33.488281 55.449219 33.933594 55.574219 C 34.476562 55.722656 34.476562 55.746094 34.476562 60.929688 C 34.476562 66.058594 34.476562 66.109375 33.933594 66.382812 C 33.464844 66.605469 33.660156 66.652344 35.042969 66.652344 L 36.691406 66.679688 L 36.199219 66.183594 C 35.78125 65.761719 35.707031 65.363281 35.707031 63.605469 C 35.707031 62.441406 35.804688 61.226562 35.953125 60.878906 C 36.101562 60.480469 36.101562 60.234375 35.953125 60.234375 C 35.828125 60.234375 35.679688 59.09375 35.65625 57.679688 L 35.582031 55.152344 Z M 34.476562 55.277344 "/>
<path style=" stroke:none;fill-rule:nonzero;fill:rgb(0%,0%,0%);fill-opacity:1;" d="M 79.09375 55.574219 C 78.355469 56.316406 79.09375 57.507812 80.007812 57.011719 C 80.792969 56.589844 80.523438 55.277344 79.660156 55.277344 C 79.511719 55.277344 79.265625 55.398438 79.09375 55.574219 Z M 79.09375 55.574219 "/>
<path style=" stroke:none;fill-rule:nonzero;fill:rgb(0%,0%,0%);fill-opacity:1;" d="M 1.15625 56.640625 C 1.527344 56.914062 2.117188 58.351562 3.203125 61.648438 C 4.0625 64.222656 4.828125 66.382812 4.898438 66.503906 C 5 66.605469 5.566406 65.09375 6.15625 63.160156 C 6.746094 61.199219 7.3125 59.515625 7.410156 59.414062 C 7.511719 59.292969 8.101562 60.804688 8.742188 62.761719 C 9.382812 64.695312 9.996094 66.382812 10.070312 66.503906 C 10.171875 66.605469 10.910156 64.546875 11.695312 61.945312 C 12.828125 58.277344 13.296875 57.109375 13.742188 56.738281 L 14.355469 56.269531 L 12.902344 56.292969 C 11.820312 56.292969 11.597656 56.367188 11.96875 56.515625 C 12.261719 56.640625 12.582031 56.863281 12.683594 57.011719 C 12.878906 57.332031 10.808594 64.273438 10.5625 64 C 10.292969 63.730469 8.371094 57.582031 8.371094 57.035156 C 8.371094 56.738281 8.570312 56.515625 8.9375 56.441406 C 9.234375 56.390625 8.71875 56.316406 7.78125 56.292969 C 6.179688 56.269531 6.105469 56.292969 6.453125 56.6875 C 7.386719 57.78125 7.363281 58.472656 6.402344 61.472656 C 5.859375 63.132812 5.417969 64.175781 5.34375 63.953125 C 4.949219 63.035156 3.203125 57.285156 3.203125 56.9375 C 3.203125 56.714844 3.398438 56.492188 3.644531 56.441406 C 3.867188 56.367188 3.300781 56.316406 2.339844 56.292969 C 0.761719 56.269531 0.664062 56.292969 1.15625 56.640625 Z M 1.15625 56.640625 "/>
<path style=" stroke:none;fill-rule:nonzero;fill:rgb(0%,0%,0%);fill-opacity:1;" d="M 53.855469 56.441406 C 54.175781 56.492188 54.46875 56.789062 54.542969 57.085938 C 54.617188 57.382812 54.640625 59.515625 54.617188 61.84375 L 54.542969 66.035156 L 53.929688 66.355469 C 53.386719 66.628906 53.609375 66.679688 55.675781 66.679688 C 59.640625 66.679688 61.511719 65.738281 62.300781 63.332031 C 62.769531 61.871094 62.523438 59.242188 61.808594 58.152344 C 61.09375 57.085938 59.542969 56.269531 58.335938 56.292969 L 57.5 56.316406 L 58.285156 56.515625 C 60.332031 56.988281 61.144531 58.300781 61.167969 61.226562 C 61.191406 63.40625 60.625 65.191406 59.691406 65.8125 C 58.851562 66.355469 56.761719 66.578125 56.269531 66.183594 C 55.972656 65.933594 55.898438 65.09375 55.898438 61.300781 C 55.898438 56.8125 55.898438 56.738281 56.464844 56.515625 C 56.859375 56.367188 56.488281 56.292969 55.160156 56.316406 C 54.148438 56.316406 53.558594 56.390625 53.855469 56.441406 Z M 53.855469 56.441406 "/>
<path style=" stroke:none;fill-rule:nonzero;fill:rgb(0%,0%,0%);fill-opacity:1;" d="M 29.304688 57.855469 C 29.304688 58.921875 29.277344 58.96875 28.515625 59.070312 L 27.703125 59.167969 L 28.515625 59.191406 L 29.304688 59.242188 L 29.304688 62.214844 C 29.304688 64.375 29.402344 65.414062 29.671875 65.933594 C 30.140625 66.828125 31.296875 67.125 32.136719 66.578125 C 32.726562 66.183594 33.167969 65.289062 32.898438 65.019531 C 32.824219 64.917969 32.75 65.019531 32.75 65.242188 C 32.75 65.710938 31.964844 66.429688 31.445312 66.429688 C 30.730469 66.429688 30.535156 65.539062 30.535156 62.367188 L 30.535156 59.265625 L 31.714844 59.167969 L 32.875 59.09375 L 31.714844 59.042969 L 30.535156 58.996094 L 30.535156 57.878906 C 30.535156 56.863281 30.484375 56.761719 29.917969 56.761719 C 29.351562 56.761719 29.304688 56.863281 29.304688 57.855469 Z M 29.304688 57.855469 "/>
<path style=" stroke:none;fill-rule:nonzero;fill:rgb(0%,0%,0%);fill-opacity:1;" d="M 16.328125 58.996094 C 14.675781 59.367188 14.035156 60.480469 14.035156 62.910156 C 14.035156 65.066406 14.652344 66.132812 16.203125 66.679688 C 17.113281 67 17.359375 67 18.273438 66.679688 C 19.75 66.132812 20.289062 65.289062 20.390625 63.234375 C 20.585938 60.035156 18.984375 58.398438 16.328125 58.996094 Z M 18 59.242188 C 18.148438 59.242188 18.46875 59.761719 18.765625 60.40625 C 19.15625 61.324219 19.257812 61.894531 19.15625 63.355469 C 19.085938 64.449219 18.863281 65.414062 18.617188 65.785156 C 17.730469 67.175781 16.007812 66.726562 15.539062 65.019531 C 15.195312 63.777344 15.21875 61.570312 15.585938 60.480469 C 15.882812 59.613281 16.84375 58.894531 17.433594 59.117188 C 17.632812 59.191406 17.878906 59.242188 18 59.242188 Z M 18 59.242188 "/>
<path style=" stroke:none;fill-rule:nonzero;fill:rgb(0%,0%,0%);fill-opacity:1;" d="M 25.707031 58.996094 C 25.414062 59.09375 24.945312 59.515625 24.648438 59.886719 L 24.132812 60.554688 L 24.132812 59.761719 C 24.132812 58.996094 24.132812 58.996094 22.851562 59.019531 C 21.71875 59.019531 21.621094 59.070312 22.113281 59.292969 C 22.851562 59.664062 22.925781 60.109375 22.851562 63.332031 C 22.777344 65.933594 22.753906 66.058594 22.164062 66.355469 C 21.621094 66.628906 21.792969 66.679688 23.640625 66.652344 C 25.660156 66.652344 25.707031 66.652344 24.945312 66.308594 L 24.132812 65.960938 L 24.132812 63.503906 C 24.132812 61.347656 24.207031 60.953125 24.699219 60.207031 C 25.09375 59.613281 25.488281 59.339844 25.980469 59.292969 C 26.570312 59.21875 26.667969 59.265625 26.421875 59.515625 C 25.683594 60.257812 26.472656 61.347656 27.234375 60.703125 C 27.753906 60.285156 27.652344 59.5625 27.039062 59.144531 C 26.421875 58.695312 26.421875 58.695312 25.707031 58.996094 Z M 25.707031 58.996094 "/>
<path style=" stroke:none;fill-rule:nonzero;fill:rgb(0%,0%,0%);fill-opacity:1;" d="M 37.527344 59.019531 C 37.109375 59.144531 36.59375 59.441406 36.421875 59.664062 C 36.101562 60.058594 36.101562 60.058594 36.691406 59.664062 C 37.453125 59.144531 38.265625 59.117188 38.757812 59.640625 C 39.078125 59.9375 39.152344 60.628906 39.152344 62.960938 C 39.152344 65.710938 39.128906 65.933594 38.613281 66.28125 C 38.09375 66.652344 38.144531 66.679688 39.769531 66.679688 C 41.371094 66.679688 41.445312 66.652344 40.949219 66.308594 C 40.457031 65.960938 40.410156 65.664062 40.335938 62.835938 C 40.261719 59.539062 40.113281 59.167969 38.90625 58.921875 C 38.5625 58.871094 37.945312 58.894531 37.527344 59.019531 Z M 37.527344 59.019531 "/>
<path style=" stroke:none;fill-rule:nonzero;fill:rgb(0%,0%,0%);fill-opacity:1;" d="M 66.5625 58.921875 C 65.921875 59.042969 64.789062 60.132812 64.492188 60.929688 C 64.074219 62.019531 64.222656 64.496094 64.761719 65.390625 C 65.921875 67.324219 68.972656 67.296875 69.957031 65.363281 C 70.207031 64.894531 70.15625 64.917969 69.515625 65.488281 C 68.753906 66.230469 67.59375 66.40625 66.683594 65.910156 C 65.96875 65.511719 65.476562 64.125 65.527344 62.515625 C 65.601562 60.132812 66.511719 58.722656 67.71875 59.117188 C 68.332031 59.316406 68.679688 59.960938 68.753906 61.078125 C 68.828125 61.871094 68.898438 61.96875 69.515625 61.96875 C 70.277344 61.96875 70.351562 61.621094 69.835938 60.359375 C 69.367188 59.21875 68.011719 58.621094 66.5625 58.921875 Z M 66.5625 58.921875 "/>
<path style=" stroke:none;fill-rule:nonzero;fill:rgb(0%,0%,0%);fill-opacity:1;" d="M 72.890625 59.191406 C 72.199219 59.515625 72.003906 59.789062 71.953125 60.40625 C 71.832031 61.546875 72.199219 62.066406 73.875 63.207031 C 75.425781 64.273438 75.84375 65.019531 75.375 65.910156 C 74.664062 67.25 72.816406 66.605469 72.25 64.792969 L 71.953125 63.828125 L 71.929688 65.316406 C 71.929688 66.15625 72.003906 66.652344 72.101562 66.480469 C 72.273438 66.230469 72.46875 66.257812 73.109375 66.578125 C 74.121094 67.074219 75.425781 66.851562 76.238281 66.058594 C 77.394531 64.894531 76.753906 63.503906 74.367188 61.96875 C 72.644531 60.851562 72.398438 59.5625 73.824219 59.019531 C 74.195312 58.894531 74.316406 58.769531 74.121094 58.769531 C 73.921875 58.746094 73.355469 58.945312 72.890625 59.191406 Z M 72.890625 59.191406 "/>
<path style=" stroke:none;fill-rule:nonzero;fill:rgb(0%,0%,0%);fill-opacity:1;" d="M 83.96875 59.070312 C 81.210938 60.035156 82.691406 64.101562 85.570312 63.457031 C 87.023438 63.132812 87.542969 62.441406 87.542969 60.902344 C 87.542969 59.640625 87.738281 58.996094 88.132812 58.996094 C 88.230469 58.996094 88.304688 59.242188 88.304688 59.539062 C 88.28125 59.960938 88.425781 60.132812 88.847656 60.183594 C 89.339844 60.257812 89.414062 60.183594 89.339844 59.5625 C 89.238281 58.746094 88.355469 58.472656 87.6875 59.09375 C 87.320312 59.414062 87.171875 59.414062 86.308594 59.117188 C 85.128906 58.695312 85.054688 58.695312 83.96875 59.070312 Z M 85.792969 59.390625 C 86.359375 59.960938 86.410156 62.265625 85.867188 62.910156 C 85.421875 63.457031 84.390625 63.160156 84.019531 62.390625 C 83.132812 60.53125 84.5625 58.152344 85.792969 59.390625 Z M 85.792969 59.390625 "/>
<path style=" stroke:none;fill-rule:nonzero;fill:rgb(0%,0%,0%);fill-opacity:1;" d="M 94.117188 59.019531 C 93.671875 59.167969 93.179688 59.464844 93.007812 59.738281 C 92.613281 60.40625 92.34375 60.359375 92.34375 59.613281 C 92.34375 59.042969 92.246094 58.996094 91.210938 58.996094 L 90.078125 58.996094 L 90.644531 59.464844 C 91.183594 59.886719 91.234375 60.183594 91.332031 62.214844 C 91.433594 65.09375 91.257812 66.035156 90.546875 66.382812 C 90.101562 66.605469 90.300781 66.652344 91.703125 66.652344 C 93.230469 66.679688 93.378906 66.628906 92.957031 66.332031 C 92.566406 66.058594 92.464844 65.613281 92.390625 64.148438 C 92.21875 61.078125 93.058594 59.242188 94.609375 59.242188 C 95.59375 59.242188 95.789062 59.835938 95.789062 63.160156 C 95.789062 65.960938 95.765625 66.109375 95.25 66.382812 C 94.78125 66.605469 95.027344 66.652344 96.527344 66.652344 C 98.179688 66.679688 98.300781 66.628906 97.761719 66.355469 C 97.167969 66.058594 97.144531 65.960938 97.023438 62.910156 C 96.898438 59.539062 96.75 59.167969 95.542969 58.921875 C 95.199219 58.871094 94.558594 58.894531 94.117188 59.019531 Z M 94.117188 59.019531 "/>
<path style=" stroke:none;fill-rule:nonzero;fill:rgb(0%,0%,0%);fill-opacity:1;" d="M 100.8125 58.921875 C 99.925781 59.09375 99.433594 59.835938 99.535156 60.878906 C 99.605469 61.746094 99.78125 61.96875 101.207031 63.035156 C 102.09375 63.703125 102.882812 64.472656 103.003906 64.746094 C 103.472656 66.007812 102.292969 66.976562 100.960938 66.429688 C 100.394531 66.183594 100.148438 65.859375 99.878906 64.96875 L 99.558594 63.828125 L 99.460938 65.265625 C 99.359375 66.53125 99.535156 67.125 99.78125 66.429688 C 99.828125 66.257812 100.171875 66.308594 100.667969 66.578125 C 102.292969 67.371094 104.261719 66.457031 104.261719 64.867188 C 104.261719 63.804688 103.816406 63.257812 101.898438 61.917969 C 100.691406 61.101562 100.46875 60.851562 100.46875 60.207031 C 100.46875 59.613281 100.617188 59.390625 101.28125 59.117188 C 102.046875 58.769531 101.871094 58.695312 100.8125 58.921875 Z M 100.8125 58.921875 "/>
<path style=" stroke:none;fill-rule:nonzero;fill:rgb(0%,0%,0%);fill-opacity:1;" d="M 42.011719 59.414062 C 42.550781 59.8125 45.335938 66.578125 45.160156 67.125 C 44.742188 68.488281 45.65625 66.382812 46.785156 63.332031 C 47.5 61.421875 48.265625 59.664062 48.460938 59.414062 C 48.804688 59.019531 48.757812 58.996094 47.625 58.996094 L 46.417969 59.019531 L 47.105469 59.390625 C 47.476562 59.589844 47.773438 59.835938 47.773438 59.9375 C 47.773438 60.058594 47.328125 61.25 46.8125 62.613281 C 45.902344 64.941406 45.828125 65.042969 45.582031 64.398438 C 45.457031 64.027344 44.988281 62.9375 44.570312 61.945312 C 43.683594 59.863281 43.683594 59.640625 44.347656 59.339844 C 44.71875 59.167969 44.421875 59.117188 43.242188 59.117188 C 41.9375 59.117188 41.691406 59.167969 42.011719 59.414062 Z M 42.011719 59.414062 "/>
<path style=" stroke:none;fill-rule:nonzero;fill:rgb(0%,0%,0%);fill-opacity:1;" d="M 75.082031 59.390625 C 75.402344 59.613281 75.796875 60.160156 75.992188 60.582031 L 76.3125 61.347656 L 76.3125 60.109375 C 76.335938 59.316406 76.261719 58.996094 76.113281 59.21875 C 75.96875 59.464844 75.796875 59.488281 75.402344 59.265625 C 74.636719 58.84375 74.417969 58.945312 75.082031 59.390625 Z M 75.082031 59.390625 "/>
<path style=" stroke:none;fill-rule:nonzero;fill:rgb(0%,0%,0%);fill-opacity:1;" d="M 78.503906 59.390625 C 79.019531 59.738281 79.046875 59.9375 79.046875 62.9375 C 79.046875 65.984375 79.019531 66.109375 78.503906 66.382812 C 78.035156 66.605469 78.28125 66.652344 79.785156 66.652344 C 81.285156 66.652344 81.53125 66.605469 81.136719 66.382812 C 80.867188 66.230469 80.570312 65.984375 80.472656 65.835938 C 80.375 65.6875 80.277344 64.074219 80.277344 62.265625 L 80.277344 58.996094 L 79.121094 58.996094 C 77.988281 58.996094 77.960938 59.019531 78.503906 59.390625 Z M 78.503906 59.390625 "/>
<path style=" stroke:none;fill-rule:nonzero;fill:rgb(0%,0%,0%);fill-opacity:1;" d="M 102.636719 59.390625 C 102.929688 59.589844 103.351562 60.132812 103.523438 60.554688 L 103.867188 61.347656 L 103.890625 60.109375 C 103.890625 59.339844 103.84375 58.996094 103.695312 59.21875 C 103.546875 59.464844 103.375 59.488281 102.980469 59.265625 C 102.21875 58.871094 101.996094 58.945312 102.636719 59.390625 Z M 102.636719 59.390625 "/>
<path style=" stroke:none;fill-rule:nonzero;fill:rgb(0%,0%,0%);fill-opacity:1;" d="M 83.625 64.25 C 82.691406 65.5625 83.230469 66.082031 85.644531 66.230469 C 87.542969 66.332031 87.910156 66.554688 87.910156 67.59375 C 87.910156 67.894531 87.613281 68.363281 87.269531 68.636719 C 86.902344 68.933594 86.753906 69.15625 86.925781 69.15625 C 87.492188 69.15625 88.894531 67.496094 88.894531 66.828125 C 88.894531 65.664062 88.132812 65.191406 86.261719 65.191406 C 84.242188 65.191406 83.699219 64.941406 84.167969 64.199219 C 84.585938 63.53125 84.09375 63.554688 83.625 64.25 Z M 83.625 64.25 "/>
<path style=" stroke:none;fill-rule:nonzero;fill:rgb(0%,0%,0%);fill-opacity:1;" d="M 82.640625 66.949219 C 81.878906 67.570312 81.828125 68.164062 82.519531 68.808594 C 82.886719 69.15625 83.453125 69.28125 84.78125 69.304688 L 86.554688 69.355469 L 85.078125 69.207031 C 84.265625 69.109375 83.476562 68.957031 83.332031 68.859375 C 82.863281 68.5625 82.765625 67.746094 83.132812 67.074219 C 83.527344 66.308594 83.476562 66.28125 82.640625 66.949219 Z M 82.640625 66.949219 "/>
<path style=" stroke:none;fill-rule:nonzero;fill:rgb(0%,0%,0%);fill-opacity:1;" d="M 44.523438 68.4375 C 44.101562 69.15625 43.535156 69.429688 43.609375 68.835938 C 43.707031 68.117188 43.5625 67.917969 42.945312 67.917969 C 42.402344 67.917969 42.328125 68.015625 42.402344 68.585938 C 42.476562 69.183594 42.578125 69.28125 43.316406 69.28125 C 43.929688 69.28125 44.273438 69.109375 44.644531 68.613281 C 44.914062 68.238281 45.113281 67.867188 45.039062 67.820312 C 44.988281 67.746094 44.742188 68.042969 44.523438 68.4375 Z M 44.523438 68.4375 "/>
</g>
</svg>
