<?xml version="1.0"?>
<svg version="1.1" xmlns="http://www.w3.org/2000/svg" width="180" height="70" style="border: dashed 2px #aaa"><path fill="#000000" d="M15.74462890625,29.03076171875q0-0.244140625,0.37841796875-0.347900390625t0.62255859375-0.103759765625q0.28076171875,0,0.616455078125,0.0732421875t0.408935546875,0.37841796875q0.35400390625,1.42822265625,0.543212890625,2.911376953125t0.286865234375,2.984619140625t0.15869140625,2.984619140625t0.13427734375,2.935791015625q0.32958984375-1.45263671875,0.677490234375-2.886962890625t0.909423828125-2.862548828125l0-0.9765625q0-0.62255859375,0.433349609375-0.897216796875t1.165771484375-0.274658203125q0.0732421875,0,0.335693359375,0.03662109375t0.262451171875,0.244140625q-0.048828125,0.146484375-0.115966796875,0.28076171875t-0.067138671875,0.29296875q0,1.85546875,0.439453125,3.802490234375t0.86669921875,3.790283203125q0.244140625-1.57470703125,0.5615234375-3.13720703125t0.6591796875-3.11279296875q0.45166015625-2.0751953125,0.689697265625-3.448486328125t0.45166015625-2.1728515625t0.4638671875-1.13525390625t0.701904296875-0.335693359375q0.28076171875-0.0244140625,0.52490234375,0.09765625t0.1953125,0.40283203125q-0.87890625,4.248046875-1.641845703125,8.5205078125t-1.556396484375,8.544921875q0,0.244140625,0.08544921875,0.57373046875t0.08544921875,0.5859375q0,0.146484375-0.13427734375,0.244140625t-0.323486328125,0.164794921875t-0.4150390625,0.091552734375t-0.396728515625,0.0244140625q-0.37841796875,0-0.79345703125-0.115966796875t-0.537109375-0.665283203125q-0.42724609375-1.904296875-0.787353515625-3.826904296875t-0.665283203125-3.875732421875q-0.09765625,0.45166015625-0.18310546875,0.91552734375t-0.15869140625,0.93994140625q-0.35400390625,2.0751953125-0.78125,4.150390625t-0.42724609375,4.19921875q0,0.52490234375-0.2197265625,0.677490234375t-0.74462890625,0.152587890625q-0.40283203125,0-0.68359375-0.13427734375q-0.2197265625-0.1220703125-0.4150390625-0.2197265625q-0.1708984375-0.09765625-0.311279296875-0.225830078125t-0.140380859375-0.250244140625q-0.1953125-2.64892578125-0.274658203125-5.26123046875t-0.177001953125-5.26123046875q-0.09765625-2.38037109375-0.286865234375-4.754638671875t-0.421142578125-4.718017578125z M30.328002929688,43.1787109375q0-0.69580078125,0.177001953125-1.434326171875t0.5615234375-1.33056640625t0.970458984375-0.96435546875t1.416015625-0.372314453125q0.62255859375,0,1.312255859375,0.213623046875t1.263427734375,0.6103515625t0.933837890625,0.970458984375t0.360107421875,1.28173828125q0,0.8544921875-0.311279296875,1.62353515625t-0.872802734375,1.373291015625t-1.312255859375,0.9521484375t-1.629638671875,0.347900390625q-0.72021484375,0-1.25732421875-0.262451171875t-0.897216796875-0.701904296875t-0.537109375-1.03759765625t-0.177001953125-1.26953125z M32.122436523438,43.154296875q0,0.2197265625,0.067138671875,0.64697265625t0.201416015625,0.836181640625t0.347900390625,0.7080078125t0.518798828125,0.274658203125q0.64697265625-0.0732421875,1.068115234375-0.421142578125t0.68359375-0.848388671875t0.3662109375-1.08642578125t0.103759765625-1.11083984375q0-0.67138671875-0.262451171875-1.123046875t-0.860595703125-0.732421875q0,0.0244140625,0.0244140625,0.0244140625t0.0244140625-0.0244140625l-0.30517578125-0.0732421875q-0.1220703125-0.048828125-0.299072265625-0.10986328125t-0.347900390625-0.2685546875q-0.47607421875,0.1708984375-0.738525390625,0.439453125t-0.396728515625,0.653076171875t-0.164794921875,0.921630859375t-0.030517578125,1.2939453125z M39.576904296875,39.52880859375q0-0.50048828125,0.177001953125-0.84228515625t0.750732421875-0.341796875q0.2197265625,0,0.54931640625,0.067138671875t0.37841796875,0.335693359375q0.1220703125,0.72021484375,0.13427734375,1.5625t0.08544921875,1.5869140625q0.28076171875-0.54931640625,0.72021484375-1.18408203125t1.0009765625-1.171875t1.220703125-0.89111328125t1.3427734375-0.35400390625q0.048828125,0,0.18310546875,0.03662109375t0.250244140625,0.103759765625t0.140380859375,0.152587890625t-0.13427734375,0.15869140625q-0.048828125,0.146484375-0.20751953125,0.177001953125t-0.28076171875,0.030517578125q-0.0732421875,0-0.23193359375-0.06103515625q-0.9033203125,0.47607421875-1.5380859375,1.2939453125t-1.03759765625,1.812744140625t-0.5859375,2.099609375t-0.18310546875,2.154541015625q0,0.52490234375-0.238037109375,0.634765625t-0.762939453125,0.10986328125q-0.28076171875,0-0.592041015625-0.06103515625t-0.433349609375-0.390625q-0.2197265625-0.69580078125-0.360107421875-1.59912109375t-0.213623046875-1.861572265625t-0.103759765625-1.885986328125t-0.030517578125-1.67236328125z M47.751586914062,35.1953125q0-0.1708984375,0.3662109375-0.29296875t0.830078125-0.201416015625t0.897216796875-0.115966796875t0.592041015625-0.06103515625q0-0.32958984375,0.0244140625-0.665283203125t0.13427734375-0.59814453125t0.347900390625-0.421142578125t0.665283203125-0.15869140625q0.35400390625,0,0.537109375,0.08544921875t0.390625,0.35400390625q0.048828125,0.146484375,0.048828125,0.28076171875l0,0.408935546875t-0.0244140625,0.421142578125q0.45166015625-0.048828125,0.897216796875-0.115966796875t0.897216796875-0.067138671875q0.32958984375,0,0.45166015625,0.01220703125t0.244140625,0.29296875q0.09765625,0.28076171875-0.238037109375,0.42724609375t-0.8056640625,0.2197265625t-0.933837890625,0.10986328125t-0.5615234375,0.03662109375q-0.146484375,2.099609375-0.299072265625,4.16259765625t-0.152587890625,4.18701171875q0,0.9521484375,0.06103515625,1.96533203125t0.341796875,1.91650390625q0.0732421875,0.28076171875,0.244140625,0.52490234375t0.1708984375,0.52490234375q0,0.1708984375-0.13427734375,0.2685546875t-0.323486328125,0.164794921875t-0.37841796875,0.079345703125t-0.311279296875,0.01220703125q-0.76904296875,0-1.171875-0.57373046875t-0.579833984375-1.373291015625t-0.189208984375-1.641845703125t-0.01220703125-1.3671875q0-1.07421875,0.042724609375-2.197265625t0.103759765625-2.2216796875t0.1708984375-2.1484375t0.25634765625-1.953125q-0.42724609375,0.048828125-0.836181640625,0.10986328125t-0.836181640625,0.06103515625q-0.09765625,0-0.262451171875-0.01220703125t-0.311279296875-0.06103515625t-0.250244140625-0.13427734375t-0.103759765625-0.244140625z M57.0859375,44.27734375l0-1.1474609375q0-0.62255859375,0.030517578125-1.763916015625t0.079345703125-2.50244140625t0.13427734375-2.838134765625t0.1953125-2.789306640625t0.262451171875-2.349853515625t0.347900390625-1.5380859375q0.1220703125-0.28076171875,0.40283203125-0.35400390625t0.54931640625-0.0732421875q0.42724609375,0,0.750732421875,0.189208984375t0.323486328125,0.689697265625l-0.2197265625,0.244140625q-0.42724609375,2.81982421875-0.54931640625,5.6640625t-0.1708984375,5.6884765625q0.30517578125-0.47607421875,0.689697265625-0.933837890625t0.8544921875-0.811767578125t1.01318359375-0.567626953125t1.190185546875-0.213623046875q0.830078125,0,1.373291015625,0.50048828125t0.897216796875,1.300048828125t0.52490234375,1.788330078125t0.262451171875,1.9775390625t0.128173828125,1.873779296875t0.10986328125,1.470947265625q-0.23193359375,0.3173828125-0.68359375,0.3173828125l-0.03662109375,0q-0.1953125,0-0.42724609375-0.048828125t-0.30517578125-0.244140625l0.0244140625,0.0244140625q-0.1708984375-0.37841796875-0.23193359375-1.092529296875t-0.09765625-1.57470703125t-0.128173828125-1.763916015625t-0.274658203125-1.6357421875t-0.537109375-1.20849609375t-0.9521484375-0.50048828125l-0.0732421875,0q-0.72021484375,0-1.20849609375,0.439453125q-0.5126953125,0.4638671875-0.830078125,1.220703125t-0.48828125,1.6845703125t-0.262451171875,1.788330078125t-0.140380859375,1.5625t-0.1220703125,1.031494140625q-0.0732421875,0.28076171875-0.433349609375,0.372314453125t-0.616455078125,0.091552734375q-0.59814453125,0-0.9765625-0.341796875q-0.28076171875-0.67138671875-0.32958984375-1.67236328125t-0.048828125-1.953125z M68.764038085938,40.224609375q0-0.35400390625,0.201416015625-0.4638671875t0.506591796875-0.10986328125q0.50048828125,0,0.762939453125,0.189208984375t0.262451171875,0.665283203125q0,0.57373046875,0.08544921875,1.434326171875t0.250244140625,1.67236328125t0.390625,1.397705078125t0.469970703125,0.5859375q0.45166015625,0,0.799560546875-0.69580078125t0.6103515625-1.708984375t0.45166015625-2.178955078125t0.262451171875-2.081298828125q0.048828125-0.50048828125,0.238037109375-0.726318359375t0.689697265625-0.225830078125q0.57373046875,0,0.836181640625,0.47607421875t0.335693359375,1.171875q0.06103515625,0.59814453125,0.06103515625,1.2451171875l0,0.20751953125l0,0.48828125q0,0.4638671875,0.01220703125,0.830078125l0.35400390625,7.48291015625l0.048828125,1.2451171875q0.0244140625,0.1708984375,0.03662109375,0.323486328125t0.01220703125,0.323486328125q0,0.69580078125-0.299072265625,0.897216796875t-0.970458984375,0.201416015625q-0.146484375,0-0.372314453125-0.0244140625t-0.439453125-0.09765625t-0.3662109375-0.201416015625t-0.152587890625-0.323486328125l0.048828125-0.1220703125q0.06103515625-0.732421875,0.06103515625-1.5380859375l0-0.25634765625q-0.01220703125-0.9521484375-0.06103515625-1.9287109375t-0.10986328125-1.953125t-0.06103515625-1.8798828125q-0.1708984375,0.37841796875-0.396728515625,0.78125t-0.52490234375,0.726318359375t-0.677490234375,0.537109375t-0.8544921875,0.213623046875q-0.69580078125,0-1.1474609375-0.3662109375t-0.701904296875-0.9521484375t-0.360107421875-1.312255859375t-0.146484375-1.45263671875t-0.048828125-1.385498046875t-0.09765625-1.11083984375z"/><path fill="#000000" d="M87.871044921875,49.375q-2.2,1.7-3.225,1.7q-0.55,0-0.8125-0.5375t-0.2625-1.1625q0-1.2,1.0125-3.6t1.9375-2.4q0.475,0,0.8125,1.875t0.6875,2.725q1.7-1.8,4.925-6q4.05-5.325,5.375-5.825q0.45-0.175,0.925-0.175t0.7875,0.2t0.3125,0.5q0,0.425-0.725,0.5q-0.875,0.475-2.7,2.3q-1.825,1.775-2.925,3.325q-2.675,3.725-5.5,6.075q1.4,2.075,4.4,2.075q0.325,0,0.975-0.05q6.95-0.65,9.85-6.025q1.175-2.15,1.175-4.25t-1.525-3.775q-1.225-1.375-2.6625-1.7t-2.9375-0.325q-3.85,0-7.1,1.775q-3.425,1.875-3.425,4.2q0,0.625,0.3375,1.025t0.4625,0.45l-0.15,0q-0.65-0.125-1.15-0.65q-0.55-0.65-0.55-1.375q0-2.5,3.1375-4.3t7.3625-1.8q1.95,0,4,0.45t3.725,2.15q1.925,2,1.925,4.525q0,1.875-1.1,3.875q-1.9,3.45-5.675,5.05q-3.025,1.275-6.525,1.275t-5.175-2.1z M84.471044921875,49.275q0,0.775,0.3,1.35q1.075-0.475,2.6-1.975q-0.725-1.2-0.9125-1.8875t-0.2625-1.8125q-1.725,2.475-1.725,4.325z M88.046044921875,42.275q0.025,0,0.05-0.025q0,0.05-0.0125,0.05t-0.0375-0.025z M108.60029492188,50.325q-0.275,0-0.5-0.075q-1.6-0.45-1.6-1.8q0-1.75,2.2-4.05t3.95-2.3q0.575,0,0.9375,0.3125t0.3625,0.7625q0,1.4-2.1125,2.675t-3.4375,1.275q-0.2,0-0.35-0.05q-0.375,0.675-0.375,1.425q0,1.3,1.2375,1.3t3.2125-1.675q1.525-1.225,2.6-2.6q0.225-0.3,0.3875-0.3t0.1625,0.15t-0.2,0.425q-1.35,1.775-3.25,3.15t-3.225,1.375z M113.32529492187,43.125q0-0.3-0.6375-0.3t-1.8125,0.975q-1.575,1.3-2.45,2.725q0.15,0.05,0.325,0.05q0.95,0,2.5375-1.0125t1.9875-2.2125q0.05-0.125,0.05-0.225z M119.45454492187,49.625q-0.725,0.425-1.7875,0.425t-1.625-0.7t-0.9625-2.225q-0.45,0.45-0.625,0.45q-0.125,0-0.125-0.175t0.125-0.3q0.825-1.025,2.8-2.95l3.15-2.95q1.35-1.275,1.6-1.275q0.8,0,0.8,0.6q0,0.3-0.2375,0.5875t-0.35,0.45t-0.2375,0.3125q-0.45,0.775-0.9125,3.2t-0.7125,3.375q2.075-0.025,4.275-2.7q0.25-0.25,0.375-0.25t0.125,0.1625t-0.225,0.4375q-1.45,1.7-2.7,2.375q-0.75,0.375-1.95,0.625z M116.07954492187,46.85q0,0.85,0.5625,1.3875t1.2625,0.5375t1.075-0.275q0.5-0.275,0.9875-2.3t0.5875-3.575l0.1-0.85q-1.375,1.025-2.9375,2.65t-1.6125,2.15q-0.025,0.15-0.025,0.275z M131.07129492187,40.0375q0.3375,0.2375,0.3375,0.5625t-0.3125,0.5625t-0.6875,0.2375t-0.6875-0.275t-0.3125-0.625q0-0.7,0.95-0.7q0.375,0,0.7125,0.2375z M125.83379492187,50.275q-1.275,0-1.275-1.65q0-1.35,1.475-3.7375t2.375-2.4125q0.25,0,0.5625,0.2t0.3125,0.4q-0.125,0.175-0.3,0.3875t-0.375,0.4625t-0.55,0.7125t-0.675,0.8875q-1.875,2.425-1.875,3.3375t0.625,0.9125q0.525,0,1.425-0.575q2.1-1.3,3.325-2.85q0.45-0.575,0.6125-0.575t0.1625,0.2t-0.575,0.8t-0.9125,0.95t-0.4625,0.4625t-0.4625,0.425t-0.5125,0.4375t-0.5,0.375t-0.575,0.3625t-0.575,0.2625q-0.525,0.225-1.25,0.225z M140.03804492187,42.375l0.35-0.075q0.325,0,0.5125,0.2t0.1875,0.3125t-0.025,0.25t-0.725,1.2625q-0.875,1.525-1.45,2.575q-2.025,3.775-3.1,5.175q-2.3,3.05-4.375,3.05q-0.725,0-1.2625-0.6125t-0.5625-1.3625q0.075-0.3,0.225-0.3q0.075,0,0.125,0.175q0.125,0.65,0.475,1t0.7,0.35q1.425,0,3.05-1.875q1.075-1.25,2.375-3.65l1.25-2.475l-1.875,1.9q-1.8,1.725-2.4625,1.725t-1.2625-0.45q-0.675-0.5-0.675-1.325q0-1.825,2.5625-4.35t4.6625-2.525q0.85,0,1.1,0.55q0.075,0.2,0.125,0.3375t0.075,0.1375z M132.56304492187,48.525q0,0.9,0.625,0.9q1.45,0,3.95-3.175l2.65-3.65q-0.15-0.35-0.625-0.35q-1.55,0-4.075,2.3875t-2.525,3.8875z M146.06729492188,42.1q0.675,0,0.675,0.525q0,0.15-0.075,0.3q-2.25,3.125-2.7,4.725q5.825-5.825,7.075-5.825q0.125-0.025,0.225-0.025q0.7,0,0.7,0.625q0,0.125-0.05,0.25t-1,1.35q-1.1,1.3-1.8625,2.5t-0.7625,2t0.35,0.8q1.1,0,3.825-3.025q0.05-0.05,0.175-0.225q0.375-0.45,0.45-0.45t0.075,0.25t-0.35,0.65q-3.1,3.525-4.4,3.525q-1.225,0-1.225-1.35t1-3.1l1.6-2.6q-1.7,1.25-3.025,2.7375t-2.4125,2.8875t-1.2625,1.4q-0.375,0-0.5875-0.3125t-0.2125-0.775t0.325-1.2375t0.825-1.875l-1.5,1.575q-0.55,0.55-0.6875,0.55t-0.1375-0.1625t0.2-0.3625q0.925-0.925,1.6-1.775q0.65-0.85,2.675-3.25q0.225-0.3,0.475-0.3z M157.82154492187,49.625q-0.725,0.425-1.7875,0.425t-1.625-0.7t-0.9625-2.225q-0.45,0.45-0.625,0.45q-0.125,0-0.125-0.175t0.125-0.3q0.825-1.025,2.8-2.95l3.15-2.95q1.35-1.275,1.6-1.275q0.8,0,0.8,0.6q0,0.3-0.2375,0.5875t-0.35,0.45t-0.2375,0.3125q-0.45,0.775-0.9125,3.2t-0.7125,3.375q2.075-0.025,4.275-2.7q0.25-0.25,0.375-0.25t0.125,0.1625t-0.225,0.4375q-1.45,1.7-2.7,2.375q-0.75,0.375-1.95,0.625z M154.44654492187,46.85q0,0.85,0.5625,1.3875t1.2625,0.5375t1.075-0.275q0.5-0.275,0.9875-2.3t0.5875-3.575l0.1-0.85q-1.375,1.025-2.9375,2.65t-1.6125,2.15q-0.025,0.15-0.025,0.275z"/></svg>
